# xmcd
#
# Track frame offsets: 
#        150
#        15640
#        33697
#        51077
#        67077
#        81210
#        96105
#        112555
#        130357
#        146105
#        160985
#        175570
#
# Disc length: 2539 seconds
#
# Revision: 0
# Processed by: cddbd v1.4PL0 Copyright (c) Steve Scherf et al.
# Submitted via: ExactAudioCopy v0.90b4
#
DISCID=9d09e90c
DTITLE=max zwo - lady country-music
DYEAR=1990
DGENRE=
TTITLE0=lady country-music
TTITLE1=bayrischer kauboi
TTITLE2=california-bleu
TTITLE3=servus bayern
TTITLE4=mein herz ist kein stein
TTITLE5=harley davidson
TTITLE6=die mad'ln vom land
TTITLE7=nachts, mit dir allein
TTITLE8=im cowboyhimmel
TTITLE9=des laid, des is' fuer di
TTITLE10=brief an nicki
TTITLE11=ohne di
EXTD=
EXTT0=
EXTT1=
EXTT2=
EXTT3=
EXTT4=
EXTT5=
EXTT6=
EXTT7=
EXTT8=
EXTT9=
EXTT10=
EXTT11=
PLAYORDER=
